<?xml version="1.0" encoding="UTF-8"?>
<svg width="180px" height="20px" viewBox="0 0 180 20" version="1.1" xmlns="http://www.w3.org/2000/svg" xmlns:xlink="http://www.w3.org/1999/xlink">
    <!-- Generator: Sketch 52.5 (67469) - http://www.bohemiancoding.com/sketch -->
    <title>Group 19</title>
    <desc>Created with Sketch.</desc>
    <defs>
        <polygon id="path-1" points="0 0.344827586 17 0.344827586 17 16.3448276 0 16.3448276"></polygon>
        <polygon id="path-3" points="0.67448855 0.881773399 18.6744885 0.881773399 18.6744885 18.8817734 0.67448855 18.8817734"></polygon>
    </defs>
    <g id="Usecases" stroke="none" stroke-width="1" fill="none" fill-rule="evenodd">
        <g id="Mobile-Portrait" transform="translate(-15.000000, -6.000000)">
            <g id="Group-19" transform="translate(15.000000, 6.000000)">
                <g id="Group-3" transform="translate(0.000000, 2.655172)">
                    <mask id="mask-2" fill="white">
                        <use xlink:href="#path-1"></use>
                    </mask>
                    <g id="Clip-2"></g>
                    <path d="M10.9076692,7.10891034 L7.43720409,10.5111172 L8.88746372,11.9873241 L12.3580769,8.58511724 C12.9123266,8.0418069 12.9478649,7.52415172 12.4643957,7.03215172 L12.4247112,6.9916 C11.9677477,6.52649655 11.4619189,6.5656 10.9076692,7.10891034 Z M7.95532319,4.4653931 L4.66551123,7.69049655 L5.86759493,8.91387586 L9.15740688,5.68877241 C9.64546649,5.21022069 9.69077785,4.76891034 9.29348904,4.36442759 L9.27349873,4.34435862 C8.88287336,3.94670345 8.44323472,3.98704828 7.95532319,4.4653931 Z M8.39096377,15.6897379 L1.00002962,8.16697931 L6.75723756,2.52346207 C7.64895325,1.64932414 8.4389405,1.1896 9.12719931,1.14325517 C9.81516197,1.09732414 10.4076154,1.32697931 10.9044115,1.83263448 L11.0434552,1.97415172 C11.2686793,2.20318621 11.433044,2.4493931 11.5366974,2.71091034 C11.640647,2.97366897 11.6869949,3.21904828 11.6757411,3.44828966 C11.6643392,3.67794483 11.6357605,3.87449655 11.5900049,4.03835862 C11.5441013,4.20242759 11.4866476,4.3516 11.4173479,4.48566897 C11.601703,4.38428966 11.8010137,4.30153103 12.0154282,4.23677241 C12.2299909,4.17222069 12.4895687,4.1293931 12.7943098,4.10828966 C13.0991989,4.0876 13.4202284,4.14677241 13.7578425,4.2853931 C14.0953085,4.42422069 14.416486,4.64891034 14.7212271,4.95884138 L14.8602708,5.10056552 C16.2776575,6.54304828 16.0582084,8.1736 14.2025157,9.99263448 L8.39096377,15.6897379 Z" id="Fill-1" stroke="#979797" mask="url(#mask-2)"></path>
                </g>
                <path d="M31.2805638,7.80441379 L27.2075761,6.25931034 L28.7318739,10.3026897 L31.2805638,7.80441379 Z M35.7105635,9.496 L33.7269329,8.74103448 L29.6506875,12.7370345 L30.3962519,14.7054483 L28.2543277,16.8052414 L24.2617454,5.95165517 L26.9910885,3.27586207 L37.979093,7.27227586 L35.7105635,9.496 Z" id="Fill-4" stroke="#979797"></path>
                <path d="M56.0780076,14.2440812 C55.4091468,14.8997364 54.761609,15.4087019 54.1359865,15.7707708 C53.5097717,16.1328398 52.9718103,16.3558743 52.5218064,16.4394605 C52.0720985,16.5236674 51.6395676,16.5139432 51.22525,16.4109088 C50.8104881,16.3082881 50.4779087,16.1740122 50.2273635,16.0091157 C49.9769665,15.8448398 49.7358982,15.6445639 49.5040106,15.408495 L49.3947303,15.2971846 L51.5908504,13.144426 C52.4208183,13.8925639 53.4771949,13.6374605 54.7605725,12.3793226 L54.8870297,12.2553915 C55.3087511,11.8420122 55.6368882,11.4776674 55.8709969,11.1621501 C56.1049575,10.846426 56.2456301,10.5861501 56.2925703,10.3813226 C56.3398066,10.176495 56.3429162,10.0113915 56.3023433,9.88559842 C56.2616223,9.76001221 56.185363,9.64001221 56.0725288,9.52518463 C55.913791,9.36339152 55.7517955,9.27090876 55.5866904,9.24732256 C55.4214372,9.22373635 55.1716324,9.30690876 54.8369799,9.49580532 C54.5021793,9.68511566 54.0785329,10.0180122 53.5650041,10.4947019 L52.3784685,11.5980812 C50.1251909,13.6751157 48.3096269,14.012357 46.9319247,12.610426 L46.8426347,12.5191846 C46.5380416,12.2092536 46.3129656,11.8809088 46.1671104,11.5337364 C46.0215514,11.1871846 45.9595074,10.7748398 45.9809785,10.2971157 C46.0025976,9.81939152 46.2035372,9.26842601 46.5839453,8.64442601 C46.9642053,8.02001221 47.5187512,7.35070187 48.2478791,6.63608118 L48.8714285,6.02449497 C49.4859453,5.42201221 50.0746968,4.93787428 50.6373869,4.57125359 C51.2002251,4.20525359 51.6943558,3.9586329 52.1203714,3.83242601 C52.546239,3.70601221 52.9538931,3.66359842 53.34363,3.70497773 C53.7332189,3.74656394 54.0653541,3.84111566 54.3404799,3.98821911 C54.6153096,4.13573635 54.8719259,4.33042601 55.1104769,4.57311566 L55.2098361,4.67428807 L53.0224525,6.81835704 C52.3609955,6.28952945 51.4183415,6.62428807 50.195231,7.82325359 L50.0507085,7.96497773 C49.5445836,8.46132256 49.1906811,8.87759842 48.9890011,9.21421911 C48.7874692,9.5506329 48.697735,9.78773635 48.7202426,9.92449497 C48.7421579,10.0616674 48.8164922,10.1942881 48.942209,10.3221501 C49.0612624,10.4433915 49.192458,10.5168398 49.3356478,10.5416674 C49.4786896,10.5673226 49.7037656,10.4953226 50.0108759,10.3262881 C50.3181343,10.1576674 50.6921752,9.86408118 51.1325542,9.44552945 L52.2820708,8.35828807 C53.5679657,7.1506329 54.6618056,6.45235704 55.5638866,6.2626329 C56.4658196,6.07332256 57.2879394,6.35594325 58.0295057,7.11070187 L58.1685494,7.25242601 C58.4402694,7.5288398 58.6564609,7.80297773 58.8174199,8.07525359 C58.9783788,8.34752945 59.0870669,8.6808398 59.143632,9.07539152 C59.2001972,9.47015014 59.1645108,9.88208118 59.0364248,10.3115984 C58.9086349,10.7413226 58.6502417,11.2430467 58.2612451,11.816357 C57.8719525,12.3890467 57.3522045,12.9948398 56.7015571,13.6327019 L56.0780076,14.2440812 Z" id="Fill-6" stroke="#979797"></path>
                <polygon id="Fill-8" stroke="#979797" points="67.1673859 9.808 74.2532828 2.86206897 75.9320242 4.57103448 70.924971 9.47924138 72.0176263 10.5913103 76.907255 5.79813793 78.5960656 7.51703448 73.706585 12.3102069 74.9184417 13.5437241 80.0159696 8.54675862 81.7345435 10.2958621 74.5583201 17.3303448"></polygon>
                <polygon id="Fill-10" stroke="#979797" points="97.1232231 18.844 89.732289 11.3216552 92.7238752 8.38910345 99.6459997 10.7932414 97.3785067 3.8262069 100.261405 1 107.652487 8.52234483 105.573643 10.560069 100.457606 5.35310345 102.925742 13.156 101.79592 14.2635172 94.0315373 11.6524828 99.1477228 16.8594483"></polygon>
                <polygon id="Fill-12" stroke="#979797" points="115.650233 9.808 122.73613 2.86206897 124.414871 4.57103448 119.407818 9.47903448 120.500473 10.5911034 125.389954 5.79813793 127.078912 7.51703448 122.189284 12.31 123.401288 13.5435172 128.498816 8.54655172 130.21739 10.2956552 123.041167 17.3303448"></polygon>
                <polygon id="Fill-14" stroke="#979797" points="138.215136 10.584069 140.565107 8.28048276 149.507289 8.80413793 144.858136 4.0722069 146.936832 2.03448276 154.327766 9.55682759 152.24907 11.5947586 142.787437 11.0843448 147.684913 16.0688966 145.606218 18.1064138"></polygon>
                <g id="Group-18" transform="translate(161.325511, 0.118227)">
                    <mask id="mask-4" fill="white">
                        <use xlink:href="#path-3"></use>
                    </mask>
                    <g id="Clip-17"></g>
                    <polygon id="Fill-16" stroke="#979797" mask="url(#mask-4)" points="14.7893839 17.5960591 7.84764136 10.4784741 4.28941766 13.992264 2.13848855 11.7867537 11.8787889 2.16748768 14.0299002 4.3732544 10.4605639 7.89807062 17.4024885 15.0156557"></polygon>
                </g>
            </g>
        </g>
    </g>
</svg>