<?xml version="1.0" encoding="UTF-8"?>
<svg width="600px" height="600px" viewBox="0 0 600 600" version="1.1" xmlns="http://www.w3.org/2000/svg" xmlns:xlink="http://www.w3.org/1999/xlink">
    <desc>Stripe example image</desc>
    <g stroke="none" stroke-width="1" fill="none" fill-rule="evenodd">
        <g fill="#F0F0F0" fill-rule="nonzero">
            <rect x="0" y="0" width="600" height="600"></rect>
        </g>
        <rect fill="#1950FF" fill-rule="nonzero" x="0" y="0" width="600" height="20"></rect>
        <rect fill="#1950FF" fill-rule="nonzero" x="0" y="320" width="600" height="20"></rect>
        <rect fill="#1950FF" fill-rule="nonzero" x="0" y="480" width="600" height="20"></rect>
        <rect fill="#1950FF" fill-rule="nonzero" x="0" y="560" width="600" height="20"></rect>
        <rect fill="#1950FF" fill-rule="nonzero" x="0" y="520" width="600" height="20"></rect>
        <rect fill="#1950FF" fill-rule="nonzero" x="0" y="400" width="600" height="20"></rect>
        <rect fill="#1950FF" fill-rule="nonzero" x="0" y="440" width="600" height="20"></rect>
        <rect fill="#1950FF" fill-rule="nonzero" x="0" y="360" width="600" height="20"></rect>
        <rect fill="#1950FF" fill-rule="nonzero" x="0" y="160" width="600" height="20"></rect>
        <rect fill="#1950FF" fill-rule="nonzero" x="0" y="240" width="600" height="20"></rect>
        <rect fill="#1950FF" fill-rule="nonzero" x="0" y="280" width="600" height="20"></rect>
        <rect fill="#1950FF" fill-rule="nonzero" x="0" y="320" width="600" height="20"></rect>
        <rect fill="#1950FF" fill-rule="nonzero" x="0" y="200" width="600" height="20"></rect>
        <rect fill="#1950FF" fill-rule="nonzero" x="0" y="80" width="600" height="20"></rect>
        <rect fill="#1950FF" fill-rule="nonzero" x="0" y="120" width="600" height="20"></rect>
        <rect fill="#1950FF" fill-rule="nonzero" x="0" y="40" width="600" height="20"></rect>
    </g>
</svg>